<svg width="361" height="124" viewBox="0 0 361 124" fill="none" xmlns="http://www.w3.org/2000/svg">
<mask id="mask0" mask-type="alpha" maskUnits="userSpaceOnUse" x="0" y="0" width="359" height="122">
<rect width="359" height="122" fill="black"/>
</mask>
<g mask="url(#mask0)">
<g filter="url(#filter0_d)">
<path fill-rule="evenodd" clip-rule="evenodd" d="M359 0H0V122H359V0ZM59.7704 59.16C61.0824 60.152 63.0024 60.648 65.5304 60.648C68.3464 60.648 70.5384 59.832 72.1064 58.2C73.6744 56.568 74.4584 54.328 74.4584 51.48V25.368H68.4584V51.624C68.4584 52.968 68.1544 53.976 67.5464 54.648C66.9704 55.352 66.1224 55.704 65.0024 55.704C63.5624 55.704 62.3944 55.368 61.4984 54.696L59.7704 59.16ZM68.6984 20.136C69.4344 20.808 70.3464 21.144 71.4344 21.144C72.5544 21.144 73.4664 20.792 74.1704 20.088C74.9064 19.352 75.2744 18.456 75.2744 17.4C75.2744 16.408 74.9064 15.592 74.1704 14.952C73.4344 14.28 72.5224 13.944 71.4344 13.944C70.3464 13.944 69.4344 14.296 68.6984 15C67.9624 15.672 67.5944 16.52 67.5944 17.544C67.5944 18.568 67.9624 19.432 68.6984 20.136ZM86.8386 49.656C88.9186 50.776 91.2546 51.336 93.8466 51.336C96.4706 51.336 98.8226 50.776 100.903 49.656C102.983 48.536 104.599 46.984 105.751 45C106.935 42.984 107.527 40.712 107.527 38.184C107.527 35.656 106.935 33.4 105.751 31.416C104.599 29.432 102.983 27.88 100.903 26.76C98.8226 25.64 96.4706 25.08 93.8466 25.08C91.2546 25.08 88.9186 25.64 86.8386 26.76C84.7586 27.88 83.1266 29.432 81.9426 31.416C80.7906 33.4 80.2146 35.656 80.2146 38.184C80.2146 40.712 80.7906 42.984 81.9426 45C83.1266 46.984 84.7586 48.536 86.8386 49.656ZM99.3186 43.992C97.8786 45.464 96.0546 46.2 93.8466 46.2C91.6386 46.2 89.8146 45.464 88.3746 43.992C86.9666 42.52 86.2626 40.584 86.2626 38.184C86.2626 35.784 86.9666 33.848 88.3746 32.376C89.8146 30.904 91.6386 30.168 93.8466 30.168C96.0546 30.168 97.8786 30.904 99.3186 32.376C100.759 33.848 101.479 35.784 101.479 38.184C101.479 40.584 100.759 42.52 99.3186 43.992ZM135.584 27.912C133.632 26.024 131.04 25.08 127.808 25.08C126.016 25.08 124.384 25.368 122.912 25.944C121.472 26.488 120.256 27.288 119.264 28.344V15.384H113.264V51H119.264V38.04C119.264 35.544 119.904 33.64 121.184 32.328C122.464 30.984 124.208 30.312 126.416 30.312C128.368 30.312 129.872 30.888 130.928 32.04C131.984 33.16 132.512 34.84 132.512 37.08V51H138.512V36.312C138.512 32.6 137.536 29.8 135.584 27.912ZM168.443 27.912C166.492 26.024 163.9 25.08 160.667 25.08C158.779 25.08 157.083 25.384 155.579 25.992C154.076 26.6 152.827 27.496 151.835 28.68V25.368H146.124V51H152.124V38.04C152.124 35.544 152.764 33.64 154.044 32.328C155.324 30.984 157.068 30.312 159.275 30.312C161.228 30.312 162.732 30.888 163.788 32.04C164.844 33.16 165.372 34.84 165.372 37.08V51H171.372V36.312C171.372 32.6 170.396 29.8 168.443 27.912ZM232.281 27.912C230.393 26.024 227.833 25.08 224.6 25.08C222.585 25.08 220.745 25.464 219.081 26.232C217.417 26.968 216.057 28.008 215.001 29.352C214.137 27.944 212.952 26.888 211.449 26.184C209.977 25.448 208.281 25.08 206.361 25.08C204.6 25.08 203.001 25.384 201.561 25.992C200.12 26.6 198.921 27.48 197.96 28.632V25.368H192.249V51H198.249V37.992C198.249 35.496 198.84 33.592 200.025 32.28C201.24 30.968 202.872 30.312 204.921 30.312C206.777 30.312 208.201 30.888 209.193 32.04C210.184 33.16 210.68 34.84 210.68 37.08V51H216.68V37.992C216.68 35.528 217.288 33.64 218.505 32.328C219.721 30.984 221.337 30.312 223.353 30.312C225.208 30.312 226.633 30.888 227.624 32.04C228.617 33.16 229.113 34.84 229.113 37.08V51H235.113V36.312C235.113 32.568 234.169 29.768 232.281 27.912ZM261.212 27.816C259.228 25.992 256.348 25.08 252.572 25.08C250.46 25.08 248.46 25.352 246.572 25.896C244.684 26.44 243.068 27.224 241.724 28.248L244.076 32.616C245.036 31.816 246.204 31.192 247.58 30.744C248.988 30.296 250.412 30.072 251.852 30.072C253.964 30.072 255.548 30.552 256.604 31.512C257.692 32.472 258.236 33.848 258.236 35.64V36.024H251.612C247.932 36.024 245.228 36.728 243.5 38.136C241.804 39.512 240.956 41.352 240.956 43.656C240.956 45.128 241.34 46.456 242.108 47.64C242.908 48.792 244.028 49.704 245.468 50.376C246.908 51.016 248.588 51.336 250.508 51.336C252.428 51.336 254.06 51.048 255.404 50.472C256.78 49.864 257.836 49 258.572 47.88V51H264.236V35.976C264.236 32.328 263.228 29.608 261.212 27.816ZM255.74 45.96C254.588 46.632 253.26 46.968 251.756 46.968C250.22 46.968 249.02 46.648 248.156 46.008C247.292 45.368 246.86 44.504 246.86 43.416C246.86 41.144 248.588 40.008 252.044 40.008H258.236V42.984C257.756 44.264 256.924 45.256 255.74 45.96ZM277.936 44.232L282.4 40.008L291.28 51H298.576L286.864 36.12L297.568 25.368H290.368L277.936 36.888V15.384H271.936V51H277.936V44.232ZM325.374 40.104C325.438 39.336 325.47 38.744 325.47 38.328C325.47 35.704 324.91 33.4 323.789 31.416C322.702 29.4 321.165 27.848 319.181 26.76C317.229 25.64 315.005 25.08 312.509 25.08C309.982 25.08 307.71 25.64 305.694 26.76C303.677 27.88 302.094 29.448 300.941 31.464C299.822 33.448 299.262 35.688 299.262 38.184C299.262 40.712 299.837 42.984 300.99 45C302.173 46.984 303.837 48.536 305.982 49.656C308.125 50.776 310.605 51.336 313.422 51.336C315.629 51.336 317.613 50.984 319.374 50.28C321.134 49.576 322.59 48.536 323.742 47.16L320.526 43.464C318.702 45.32 316.382 46.248 313.565 46.248C311.358 46.248 309.501 45.704 307.997 44.616C306.526 43.496 305.613 41.992 305.262 40.104H325.374ZM307.613 31.608C308.957 30.456 310.59 29.88 312.509 29.88C314.461 29.88 316.094 30.456 317.405 31.608C318.717 32.76 319.501 34.264 319.758 36.12H305.214C305.501 34.232 306.302 32.728 307.613 31.608ZM333.057 50.52C335.041 51.064 337.073 51.336 339.153 51.336C342.737 51.336 345.569 50.616 347.649 49.176C349.729 47.736 350.769 45.816 350.769 43.416C350.769 41.592 350.289 40.184 349.329 39.192C348.401 38.2 347.281 37.496 345.969 37.08C344.657 36.664 342.977 36.296 340.929 35.976C338.881 35.624 337.361 35.256 336.369 34.872C335.409 34.456 334.929 33.768 334.929 32.808C334.929 31.944 335.377 31.256 336.273 30.744C337.201 30.2 338.545 29.928 340.305 29.928C343.025 29.928 345.473 30.568 347.649 31.848L349.953 27.288C348.833 26.616 347.393 26.088 345.633 25.704C343.873 25.288 342.113 25.08 340.353 25.08C336.897 25.08 334.145 25.816 332.097 27.288C330.081 28.728 329.073 30.664 329.073 33.096C329.073 34.952 329.553 36.408 330.513 37.464C331.505 38.488 332.657 39.208 333.969 39.624C335.313 40.04 337.041 40.408 339.153 40.728C341.169 41.048 342.625 41.384 343.521 41.736C344.449 42.088 344.913 42.712 344.913 43.608C344.913 45.496 343.121 46.44 339.537 46.44C337.969 46.44 336.369 46.216 334.737 45.768C333.137 45.288 331.761 44.664 330.609 43.896L328.305 48.456C329.489 49.288 331.073 49.976 333.057 50.52ZM167.652 110L177.107 84.368H171.779L164.82 103.376L157.908 84.368H152.868L145.811 103.28L139.044 84.368H133.38L142.788 110H148.548L155.268 92.336L161.892 110H167.652ZM204.53 99.104C204.594 98.336 204.626 97.744 204.626 97.328C204.626 94.704 204.066 92.4 202.946 90.416C201.858 88.4 200.322 86.848 198.338 85.76C196.386 84.64 194.162 84.08 191.666 84.08C189.138 84.08 186.866 84.64 184.85 85.76C182.834 86.88 181.25 88.448 180.098 90.464C178.978 92.448 178.418 94.688 178.418 97.184C178.418 99.712 178.994 101.984 180.146 104C181.33 105.984 182.994 107.536 185.138 108.656C187.282 109.776 189.762 110.336 192.578 110.336C194.786 110.336 196.77 109.984 198.53 109.28C200.29 108.576 201.746 107.536 202.898 106.16L199.682 102.464C197.858 104.32 195.538 105.248 192.722 105.248C190.514 105.248 188.658 104.704 187.154 103.616C185.682 102.496 184.77 100.992 184.418 99.104H204.53ZM186.77 90.608C188.114 89.456 189.746 88.88 191.666 88.88C193.618 88.88 195.25 89.456 196.562 90.608C197.874 91.76 198.658 93.264 198.914 95.12H184.37C184.658 93.232 185.458 91.728 186.77 90.608ZM231.269 85.712C229.317 84.624 227.093 84.08 224.597 84.08C222.933 84.08 221.397 84.368 219.989 84.944C218.613 85.52 217.413 86.368 216.389 87.488V74.384H210.389V110H216.101V106.688C217.093 107.904 218.309 108.816 219.749 109.424C221.221 110.032 222.837 110.336 224.597 110.336C227.093 110.336 229.317 109.792 231.269 108.704C233.253 107.616 234.805 106.08 235.925 104.096C237.045 102.08 237.605 99.776 237.605 97.184C237.605 94.592 237.045 92.304 235.925 90.32C234.805 88.336 233.253 86.8 231.269 85.712ZM229.349 102.992C227.941 104.464 226.133 105.2 223.925 105.2C222.485 105.2 221.189 104.88 220.037 104.24C218.885 103.568 217.973 102.624 217.301 101.408C216.629 100.192 216.293 98.784 216.293 97.184C216.293 95.584 216.629 94.176 217.301 92.96C217.973 91.744 218.885 90.816 220.037 90.176C221.189 89.504 222.485 89.168 223.925 89.168C226.133 89.168 227.941 89.904 229.349 91.376C230.789 92.848 231.509 94.784 231.509 97.184C231.509 99.584 230.789 101.52 229.349 102.992ZM245.119 109.52C247.103 110.064 249.135 110.336 251.215 110.336C254.799 110.336 257.631 109.616 259.711 108.176C261.791 106.736 262.831 104.816 262.831 102.416C262.831 100.592 262.351 99.184 261.391 98.192C260.463 97.2 259.343 96.496 258.031 96.08C256.719 95.664 255.039 95.296 252.991 94.976C250.943 94.624 249.423 94.256 248.431 93.872C247.471 93.456 246.991 92.768 246.991 91.808C246.991 90.944 247.439 90.256 248.335 89.744C249.263 89.2 250.607 88.928 252.367 88.928C255.087 88.928 257.535 89.568 259.711 90.848L262.015 86.288C260.895 85.616 259.455 85.088 257.695 84.704C255.935 84.288 254.175 84.08 252.415 84.08C248.959 84.08 246.207 84.816 244.159 86.288C242.143 87.728 241.135 89.664 241.135 92.096C241.135 93.952 241.615 95.408 242.575 96.464C243.567 97.488 244.719 98.208 246.031 98.624C247.375 99.04 249.103 99.408 251.215 99.728C253.231 100.048 254.687 100.384 255.583 100.736C256.511 101.088 256.975 101.712 256.975 102.608C256.975 104.496 255.183 105.44 251.599 105.44C250.031 105.44 248.431 105.216 246.799 104.768C245.199 104.288 243.823 103.664 242.671 102.896L240.367 107.456C241.551 108.288 243.135 108.976 245.119 109.52ZM273.999 84.368H267.999V110H273.999V84.368ZM268.286 79.136C269.022 79.808 269.935 80.144 271.022 80.144C272.142 80.144 273.055 79.792 273.759 79.088C274.495 78.352 274.862 77.456 274.862 76.4C274.862 75.408 274.495 74.592 273.759 73.952C273.022 73.28 272.111 72.944 271.022 72.944C269.935 72.944 269.022 73.296 268.286 74C267.551 74.672 267.182 75.52 267.182 76.544C267.182 77.568 267.551 78.432 268.286 79.136ZM294.69 109.904C295.714 109.616 296.578 109.184 297.281 108.608L295.602 104.336C294.706 105.04 293.586 105.392 292.241 105.392C291.09 105.392 290.21 105.072 289.602 104.432C288.993 103.76 288.69 102.8 288.69 101.552V89.36H295.553V84.56H288.69V78.704H282.69V84.56H278.466V89.36H282.69V101.696C282.69 104.512 283.457 106.656 284.993 108.128C286.53 109.6 288.706 110.336 291.522 110.336C292.642 110.336 293.698 110.192 294.69 109.904ZM325.374 99.104C325.438 98.336 325.47 97.744 325.47 97.328C325.47 94.704 324.91 92.4 323.789 90.416C322.702 88.4 321.165 86.848 319.181 85.76C317.229 84.64 315.005 84.08 312.509 84.08C309.982 84.08 307.71 84.64 305.694 85.76C303.677 86.88 302.094 88.448 300.941 90.464C299.822 92.448 299.262 94.688 299.262 97.184C299.262 99.712 299.837 101.984 300.99 104C302.173 105.984 303.837 107.536 305.982 108.656C308.125 109.776 310.605 110.336 313.422 110.336C315.629 110.336 317.613 109.984 319.374 109.28C321.134 108.576 322.59 107.536 323.742 106.16L320.526 102.464C318.702 104.32 316.382 105.248 313.565 105.248C311.358 105.248 309.501 104.704 307.997 103.616C306.526 102.496 305.613 100.992 305.262 99.104H325.374ZM307.613 90.608C308.957 89.456 310.59 88.88 312.509 88.88C314.461 88.88 316.094 89.456 317.405 90.608C318.717 91.76 319.501 93.264 319.758 95.12H305.214C305.501 93.232 306.302 91.728 307.613 90.608ZM333.057 109.52C335.041 110.064 337.073 110.336 339.153 110.336C342.737 110.336 345.569 109.616 347.649 108.176C349.729 106.736 350.769 104.816 350.769 102.416C350.769 100.592 350.289 99.184 349.329 98.192C348.401 97.2 347.281 96.496 345.969 96.08C344.657 95.664 342.977 95.296 340.929 94.976C338.881 94.624 337.361 94.256 336.369 93.872C335.409 93.456 334.929 92.768 334.929 91.808C334.929 90.944 335.377 90.256 336.273 89.744C337.201 89.2 338.545 88.928 340.305 88.928C343.025 88.928 345.473 89.568 347.649 90.848L349.953 86.288C348.833 85.616 347.393 85.088 345.633 84.704C343.873 84.288 342.113 84.08 340.353 84.08C336.897 84.08 334.145 84.816 332.097 86.288C330.081 87.728 329.073 89.664 329.073 92.096C329.073 93.952 329.553 95.408 330.513 96.464C331.505 97.488 332.657 98.208 333.969 98.624C335.313 99.04 337.041 99.408 339.153 99.728C341.169 100.048 342.625 100.384 343.521 100.736C344.449 101.088 344.913 101.712 344.913 102.608C344.913 104.496 343.121 105.44 339.537 105.44C337.969 105.44 336.369 105.216 334.737 104.768C333.137 104.288 331.761 103.664 330.609 102.896L328.305 107.456C329.489 108.288 331.073 108.976 333.057 109.52Z" fill="black"/>
</g>
</g>
<defs>
<filter id="filter0_d" x="0" y="0" width="361" height="124" filterUnits="userSpaceOnUse" color-interpolation-filters="sRGB">
<feFlood flood-opacity="0" result="BackgroundImageFix"/>
<feColorMatrix in="SourceAlpha" type="matrix" values="0 0 0 0 0 0 0 0 0 0 0 0 0 0 0 0 0 0 127 0"/>
<feOffset dx="2" dy="2"/>
<feColorMatrix type="matrix" values="0 0 0 0 0 0 0 0 0 0 0 0 0 0 0 0 0 0 0.25 0"/>
<feBlend mode="normal" in2="BackgroundImageFix" result="effect1_dropShadow"/>
<feBlend mode="normal" in="SourceGraphic" in2="effect1_dropShadow" result="shape"/>
</filter>
</defs>
</svg>
